# xmcd
# 
# Track frame offsets:
#     150
#     24577
#     52308
#     74259
#     99408
#     120678
#     144657
#     168708
#     190870
#     206438
#     240752
#     258352
#     320411
# 
# Disc length: 4635
# 
# Revision: 10
# Processed by: cddbd v1.5.2PL0 Copyright (c) Steve Scherf et al.
# Submitted via: fre:ac v1.0.31
# 
DISCID=b912190d
DTITLE=Eric Clapton - Crossroads Revisited Disc 1
DYEAR=2016
DGENRE=Rock/Pop
TTITLE0=Sweet Home Chicago
TTITLE1=Rock Me Baby
TTITLE2=Steam Roller
TTITLE3=What The Cowgirls Do
TTITLE4=After Midnight
TTITLE5=Green Light Girl
TTITLE6=Hell At Home
TTITLE7=City Love
TTITLE8=Funk 49
TTITLE9=Drums Of Passions
TTITLE10=Cause We’ve Ended As Lovers
TTITLE11=Have You Ever Loved A Woman
TTITLE12=Layla
EXTD=
EXTT0=
EXTT1=
EXTT2=
EXTT3=
EXTT4=
EXTT5=
EXTT6=
EXTT7=
EXTT8=
EXTT9=
EXTT10=
EXTT11=
EXTT12=
PLAYORDER=
